<svg width="351" height="37" viewBox="0 0 351 37" fill="none" xmlns="http://www.w3.org/2000/svg">
<path d="M193.433 35.956H184.681V8.11394V6.22414V0.875H193.433V6.22414V8.11394V35.956Z" fill="#D4DF54"/>
<path d="M173.524 3.12109H186.167V10.9381L183.228 10.5989C179.476 10.1658 176.168 7.94056 174.352 4.6293L173.524 3.12109Z" fill="#D4DF54"/>
<path d="M204.798 3.12109H192.156V10.9381L195.094 10.5989C198.846 10.1658 202.155 7.94056 203.971 4.6293L204.798 3.12109Z" fill="#D4DF54"/>
<path d="M350.347 28.721V35.9599H328.159V0.878906H350.236V8.11785H336.8V14.6329H346.835V21.7605H336.8V28.721H350.347Z" fill="#D4DF54"/>
<path d="M309.756 36.3061C301.338 36.3061 296.934 29.5683 296.934 19.5451V16.928C296.934 6.84915 301.449 0 310.871 0C320.069 0 324.139 5.73547 324.139 14.4222V14.812H315.777V14.4222C315.777 9.46631 314.16 7.29462 310.982 7.29462C307.805 7.29462 306.021 9.57768 306.021 15.0347V21.2713C306.021 26.7284 307.972 29.0671 311.54 29.0671C314.16 29.0671 315.777 27.508 315.777 24.334V24.1112L313.583 22.887L311.986 17.8189H324.195V35.6935H317.784L317.115 32.5196C316.167 35.0253 313.491 36.3061 309.756 36.3061Z" fill="#D4DF54"/>
<path d="M309.312 17.8516H321.954V25.6686L319.015 25.3293C315.264 24.8962 311.955 22.671 310.139 19.3598L309.312 17.8516Z" fill="#D4DF54"/>
<path d="M294.946 35.9599H286.082C285.413 34.5678 285.023 32.5632 284.8 28.3869C284.633 25.1572 283.685 23.7094 280.842 23.7094H277.329V35.9599H268.688V0.878906H281.511C290.486 0.878906 294.667 5.1109 294.667 11.9044C294.667 16.8046 291.768 19.8115 288.591 20.5911C291.713 21.5934 292.995 23.598 293.329 27.9971C293.72 32.7859 293.943 34.4565 294.946 35.9599ZM277.329 16.9159H281.176C284.465 16.9159 286.082 15.5238 286.082 12.4612C286.082 9.62132 284.465 7.89511 281.176 7.89511H277.329V16.9159Z" fill="#D4DF54"/>
<path d="M265.366 17.221V19.6711C265.366 29.7499 260.85 36.599 251.317 36.599C241.784 36.599 237.269 29.7499 237.269 19.6711V17.221C237.269 7.14212 241.784 0.292969 251.317 0.292969C260.85 0.292969 265.366 7.14212 265.366 17.221ZM256.279 21.5643V15.3277C256.279 9.87065 254.495 7.58759 251.317 7.58759C248.139 7.58759 246.356 9.87065 246.356 15.3277V21.5643C246.356 27.0214 248.139 29.3044 251.317 29.3044C254.495 29.3044 256.279 27.0214 256.279 21.5643Z" fill="#D4DF54"/>
<path d="M222.957 35.9599H214.148V0.878906H235.779V8.11785H222.957V15.5795H232.991L229.117 20.2739L222.957 22.7071V35.9599Z" fill="#D4DF54"/>
<path d="M233.924 15.5078H221.282V23.3248L224.22 22.9856C227.972 22.5525 231.281 20.3273 233.097 17.016L233.924 15.5078Z" fill="#D4DF54"/>
<path d="M148.061 19.5734V17.1233C148.061 7.04447 152.465 0.195312 161.886 0.195312C171.085 0.195312 175.043 6.26489 175.043 15.23V16.121H166.681V15.23C166.681 9.77299 165.175 7.48994 161.998 7.48994C158.82 7.48994 157.148 9.77299 157.148 15.23V21.4667C157.148 26.9237 158.82 29.2068 161.998 29.2068C165.175 29.2068 166.681 26.9237 166.681 21.4667V20.5757H175.043V21.4667C175.043 30.4318 171.085 36.5014 161.886 36.5014C152.465 36.5014 148.061 29.6522 148.061 19.5734Z" fill="#D4DF54"/>
<path d="M131.614 36.5686C123.419 36.5686 118.179 32.0581 118.179 22.9259V0.875H126.931V22.2577C126.931 26.6011 127.656 29.2182 131.614 29.2182C135.572 29.2182 136.297 26.6011 136.297 22.2577V0.875H145.049V22.9259C145.049 32.0581 139.809 36.5686 131.614 36.5686Z" fill="#D4DF54"/>
<path d="M97.0563 28.9398H99.8995C104.025 28.9398 106.199 27.0466 106.199 21.4225V15.4086C106.199 9.78447 104.025 7.89121 99.8995 7.89121H97.0563V28.9398ZM88.248 35.956V0.875H100.68C110.826 0.875 115.175 7.00026 115.175 17.4689V19.3621C115.175 29.8308 110.826 35.956 100.68 35.956H88.248Z" fill="#D4DF54"/>
<path d="M84.9253 17.1233V19.5734C84.9253 29.6522 80.4097 36.5014 70.8767 36.5014C61.3437 36.5014 56.8281 29.6522 56.8281 19.5734V17.1233C56.8281 7.04447 61.3437 0.195312 70.8767 0.195312C80.4097 0.195312 84.9253 7.04447 84.9253 17.1233ZM75.8383 21.4667V15.23C75.8383 9.77299 74.0544 7.48994 70.8767 7.48994C67.6991 7.48994 65.9151 9.77299 65.9151 15.23V21.4667C65.9151 26.9237 67.6991 29.2068 70.8767 29.2068C74.0544 29.2068 75.8383 26.9237 75.8383 21.4667Z" fill="#D4DF54"/>
<path d="M54.8395 35.956H45.9755C45.3066 34.5639 44.9163 32.5593 44.6933 28.383C44.5261 25.1533 43.5784 23.7055 40.7352 23.7055H37.223V35.956H28.582V0.875H41.4042C50.3797 0.875 54.5608 5.107 54.5608 11.9005C54.5608 16.8007 51.6619 19.8076 48.4842 20.5872C51.6061 21.5895 52.8884 23.5941 53.2228 27.9932C53.6131 32.782 53.8361 34.4526 54.8395 35.956ZM37.223 16.912H41.0697C44.3588 16.912 45.9755 15.5199 45.9755 12.4573C45.9755 9.61742 44.3588 7.89121 41.0697 7.89121H37.223V16.912Z" fill="#D4DF54"/>
<path d="M9.40582 17.6359H12.6392C15.8169 17.6359 17.3779 16.3552 17.3779 12.7914C17.3779 9.28331 15.8169 7.89121 12.6392 7.89121H9.40582V17.6359ZM9.40582 24.6521V35.956H0.65332V0.875H13.4197C21.782 0.875 25.8516 5.16268 25.8516 12.7357C25.8516 20.4201 21.782 24.6521 13.4197 24.6521H9.40582Z" fill="#D4DF54"/>
</svg>
